# xmcd CD database file
#
# Track frame offsets:
#	150
#	25632
#	43149
#	59788
#	77687
#	88239
#	101242
#	117988
#	132354
#	147908
#	183512
#	197179
#	210740
#	233482
#	248609
#	262677
#	279295
#	307424
#
# Disc length: 4412 seconds
#
# Revision: 0
# Processed by: cddbd v1.5.2PL0 Copyright (c) Steve Scherf et al.
# Submitted via: CDex 1.70beta2
#
DISCID=08113a12
DTITLE=Tony Joe White - Tony Joe
DYEAR=2006
DGENRE=Country
TTITLE0=Stud Spider
TTITLE1=High Sheriff Of Calhoun Parrish
TTITLE2=Widow Wimberly
TTITLE3=Conjure Woman
TTITLE4=Save Your Sugar For Me
TTITLE5=Hard To Handle
TTITLE6=What Does It Take (To Win Your Love)
TTITLE7=My Friend
TTITLE8=Stockholm Blues
TTITLE9=Boom Boom
TTITLE10=Groupy Girl
TTITLE11=Prisoner
TTITLE12=Do You Want My Love
TTITLE13=Gospel Singer
TTITLE14=I Hate To See You Cry
TTITLE15=Dusty Marshmallow
TTITLE16=I Can't Stand It
TTITLE17=Mississippi River
EXTD=YEAR: 2006
EXTT0=
EXTT1=
EXTT2=
EXTT3=
EXTT4=
EXTT5=
EXTT6=
EXTT7=
EXTT8=
EXTT9=
EXTT10=
EXTT11=
EXTT12=
EXTT13=
EXTT14=
EXTT15=
EXTT16=
EXTT17=
PLAYORDER=
